<svg width="50" height="50" viewBox="0 0 50 50" fill="none" xmlns="http://www.w3.org/2000/svg">
<path d="M25 50C38.8069 50 50 38.8071 50 24.9999C50 11.1927 38.8069 0 25 0C11.1931 0 0 11.1929 0 25.0001C0 38.8073 11.1929 50 25 50ZM25 3.99996C36.579 3.99996 45.9999 13.4209 45.9999 24.9999C45.9999 36.5789 36.579 45.9999 25 45.9999C13.421 45.9999 4.00012 36.5789 4.00012 24.9999C4.00012 13.4209 13.4199 3.99996 25 3.99996Z" fill="white"/>
<path d="M20.354 36.792C21.7349 36.792 22.8541 35.6731 22.8541 34.292V15.292C22.8541 13.9111 21.7351 12.7919 20.354 12.7919C18.9731 12.7919 17.8539 13.9109 17.8539 15.292V34.292C17.8539 35.6731 18.9729 36.792 20.354 36.792Z" fill="white"/>
<path d="M30.3539 36.792C31.7348 36.792 32.8539 35.6731 32.8539 34.292V15.292C32.8539 13.9111 31.735 12.7919 30.3539 12.7919C28.9728 12.7919 27.854 13.9111 27.854 15.292V34.292C27.854 35.6731 28.9729 36.792 30.3539 36.792Z" fill="white"/>
</svg>
