<svg width="50" height="50" viewBox="0 0 50 50" fill="none" xmlns="http://www.w3.org/2000/svg">
<path d="M49.9997 0.00153614L41.604 6.51828C37.1886 2.90099 31.5181 0.703744 25.3591 0.703744C11.4393 0.703744 0 11.8802 0 25.4782C0 39.077 11.4402 50 25.3591 50C36.2712 50 45.6487 43.2993 49.1947 33.8484L40.1089 31.6855C37.6774 37.2871 32.0428 41.1514 25.3591 41.1514C16.4122 41.1514 9.31485 34.2181 9.31485 25.4771C9.31485 16.7365 16.4118 9.55016 25.3591 9.55016C28.6787 9.55016 31.7288 10.5543 34.2724 12.2467L25.963 18.7073L50 23.0612V0L49.9997 0.00153614Z" fill="white"/>
</svg>
